<?xml version="1.0" encoding="UTF-8" standalone="no"?>
<svg
   inkscape:version="1.1 (c4e8f9e, 2021-05-24)"
   sodipodi:docname="passthru_enabled.svg"
   xml:space="preserve"
   viewBox="0 0 875 450"
   height="450"
   width="875"
   y="0px"
   x="0px"
   id="Layer_1"
   version="1.1"
   xmlns:inkscape="http://www.inkscape.org/namespaces/inkscape"
   xmlns:sodipodi="http://sodipodi.sourceforge.net/DTD/sodipodi-0.dtd"
   xmlns="http://www.w3.org/2000/svg"
   xmlns:svg="http://www.w3.org/2000/svg"
   xmlns:rdf="http://www.w3.org/1999/02/22-rdf-syntax-ns#"
   xmlns:cc="http://creativecommons.org/ns#"
   xmlns:dc="http://purl.org/dc/elements/1.1/"><defs
     id="defs976" /><sodipodi:namedview
     fit-margin-bottom="0"
     fit-margin-right="0"
     fit-margin-top="0"
     fit-margin-left="0"
     inkscape:current-layer="Layer_1"
     inkscape:window-maximized="0"
     inkscape:window-y="787"
     inkscape:window-x="1836"
     inkscape:cy="218.45096"
     inkscape:cx="281.6623"
     inkscape:zoom="0.53787816"
     showgrid="false"
     id="namedview974"
     inkscape:window-height="785"
     inkscape:window-width="1558"
     inkscape:pageshadow="2"
     inkscape:pageopacity="0"
     guidetolerance="10"
     gridtolerance="10"
     objecttolerance="10"
     borderopacity="1"
     bordercolor="#666666"
     pagecolor="#656565"
     inkscape:document-rotation="0"
     inkscape:pagecheckerboard="true"
     width="875px" /><rect
     y="0"
     x="0"
     height="450"
     width="875"
     id="rect8876"
     style="fill:#000000;fill-opacity:0;stroke:none;stroke-width:27.184;stroke-linejoin:miter;stroke-miterlimit:4;stroke-dasharray:none;stroke-opacity:1" /><metadata
     id="metadata971"><rdf:RDF><rdf:Description
         dc:language="en"
         dc:format="image/svg+xml"
         dc:date="2017-09-24"
         dc:publisher="Iconscout"
         dc:description="ios,arrow,thin,right"
         dc:title="ios,arrow,thin,right"
         about="https://iconscout.com/legal#licenses"><dc:creator><rdf:Bag><rdf:li>Benjamin J Sperry</rdf:li></rdf:Bag></dc:creator></rdf:Description><cc:Work
         rdf:about=""><dc:format>image/svg+xml</dc:format><dc:type
           rdf:resource="http://purl.org/dc/dcmitype/StillImage" /></cc:Work></rdf:RDF></metadata><path
     style="fill:#e6e6e6;fill-opacity:1;stroke-width:0.0998643"
     d="m 192.68345,331.50477 v 75.49708 c 0,5.79209 -4.69361,10.38583 -10.38584,10.38583 -5.79211,0 -10.38585,-4.6936 -10.38585,-10.38583 v -75.49708 c -31.85655,-2.49657 -60.51748,-16.57738 -81.888332,-37.94826 -23.66772,-23.66771 -38.34771,-56.32319 -38.34771,-92.27418 0,-5.7921 4.6936,-10.38585 10.38583,-10.38585 5.79211,0 10.38586,4.69361 10.38586,10.38585 0,30.15887 12.3831,57.62146 32.256002,77.59419 19.87291,19.87292 47.33546,32.25604 77.5942,32.25604 30.15889,0 57.62145,-12.38312 77.59421,-32.25604 19.8729,-19.87288 32.25602,-47.33542 32.25602,-77.59419 0,-5.7921 4.6936,-10.38585 10.38583,-10.38585 5.79212,0 10.38586,4.69361 10.38586,10.38585 0,35.95099 -14.68,68.60647 -38.34772,92.27418 -21.37086,21.37088 -50.03178,35.45169 -81.88836,37.94826 z M 182.99666,32.612321 c 19.97277,0 38.14798,8.188803 51.33001,21.370835 13.18205,13.182039 21.37086,31.357264 21.37086,51.330034 v 93.97186 c 0,19.97278 -8.18881,38.14802 -21.37086,51.33002 -13.18203,13.18202 -31.35724,21.37086 -51.33001,21.37086 -19.97277,0 -38.14799,-8.18884 -51.33002,-21.37086 -13.18203,-13.182 -21.37085,-31.35724 -21.37085,-51.33002 v -93.97186 c 0,-19.97277 8.18882,-38.147995 21.37085,-51.330034 13.18203,-13.182031 31.35725,-21.370835 51.33002,-21.370835 z m 36.55016,36.050834 c -9.38721,-9.387204 -22.36949,-15.17932 -36.55016,-15.17932 -14.28053,0 -27.16297,5.792115 -36.55017,15.179319 -9.38719,9.387195 -15.1793,22.369485 -15.1793,36.550156 v 93.9719 c 0,14.28052 5.79211,27.16295 15.1793,36.55017 9.3872,9.38719 22.3695,15.17927 36.55017,15.17927 14.28052,0 27.16295,-5.79208 36.55016,-15.17927 9.38721,-9.38721 15.17932,-22.36952 15.17932,-36.55016 v -93.9719 c 0,-14.280511 -5.79211,-27.162971 -15.17932,-36.550165 z"
     fill-rule="nonzero"
     id="path7563" /><path
     id="path969"
     d="m 727.75001,318.70692 c -3.1,-3.1 -3,-8 0,-11.3 l 66.40003,-74.4 H 363.55006 c -4.4,0 -8,-3.6 -8,-8 0,-4.4 3.6,-8 8,-8 h 430.59998 l -66.30003,-74.4 c -2.9,-3.4 -3.2,-8.1 -0.1,-11.2 3.1,-3.1 8.5,-3.3 11.4,-0.1 0,0 79.19999,87 79.99999,88 0.8,1 2.4,2.8 2.4,5.7 0,2.9 -1.6,4.9 -2.4,5.7 -0.8,0.8 -79.99999,88 -79.99999,88 -1.5,1.5 -3.6,2.3 -5.7,2.3 -2.1,0 -4.1,-0.8 -5.7,-2.3 z"
     style="fill:#a5bde0;fill-opacity:1"
     sodipodi:nodetypes="cccsssccscssscsc" /><path
     id="path7296-9"
     fill-rule="nonzero"
     d="m 497.42647,130.62944 h 95.87809 l 85.25848,-82.214541 c 4.31551,-4.315516 13.31363,-4.315516 17.62915,0 2.21607,2.21607 3.26579,5.01532 3.26579,7.81457 V 392.78558 c 0,6.18168 -7.01533,12.03616 -13.08037,12.03616 -3.14916,0 -5.94841,-1.28299 -7.93121,-3.38242 l -98.55867,-75.15689 -84.49538,2 c -9.67804,0.22908 -18.54504,-3.96561 -24.95999,-10.38056 -6.41495,-6.41495 -9.28939,-17.27924 -9.28485,-26.95998 l 0.0568,-121.08854 c 0.005,-9.68075 4.73061,-22.54504 11.14556,-28.95999 6.41495,-6.41495 15.27924,-10.38056 24.95999,-10.38056 z M 601.3335,156.79018 H 499.42647 c -3.6157,0 -6.88149,1.51626 -9.33083,3.84896 -2.33271,2.33271 -3.84897,5.71514 -3.84897,9.33084 v 119.08854 c 0,3.6157 1.51626,6.88149 3.84897,9.33084 2.3327,2.33271 5.71513,3.84897 9.33083,3.84897 h 92.54351 c 2.56598,0 5.01532,0.81645 7.11476,2.56598 l 74.93712,61.35243 V 87.334029 l -64.29061,65.607181 c -1.98281,2.3327 -5.01533,3.84897 -8.39775,3.84897 z"
     style="fill:#e6e6e6;fill-opacity:1;stroke:none;stroke-width:0.116635;stroke-opacity:1"
     sodipodi:nodetypes="cccssssccsssssccsscsscssccccs" /></svg>
