<?xml version="1.0" encoding="UTF-8" standalone="no"?>
<svg
   inkscape:version="1.1 (c4e8f9e, 2021-05-24)"
   sodipodi:docname="passthru.svg"
   xml:space="preserve"
   viewBox="0 0 875 450"
   height="450"
   width="875"
   y="0px"
   x="0px"
   id="Layer_1"
   version="1.1"
   xmlns:inkscape="http://www.inkscape.org/namespaces/inkscape"
   xmlns:sodipodi="http://sodipodi.sourceforge.net/DTD/sodipodi-0.dtd"
   xmlns="http://www.w3.org/2000/svg"
   xmlns:svg="http://www.w3.org/2000/svg"
   xmlns:rdf="http://www.w3.org/1999/02/22-rdf-syntax-ns#"
   xmlns:cc="http://creativecommons.org/ns#"
   xmlns:dc="http://purl.org/dc/elements/1.1/"><defs
     id="defs976" /><sodipodi:namedview
     fit-margin-bottom="0"
     fit-margin-right="0"
     fit-margin-top="0"
     fit-margin-left="0"
     inkscape:current-layer="Layer_1"
     inkscape:window-maximized="0"
     inkscape:window-y="132"
     inkscape:window-x="1788"
     inkscape:cy="96.472959"
     inkscape:cx="375.5889"
     inkscape:zoom="0.53382835"
     showgrid="false"
     id="namedview974"
     inkscape:window-height="785"
     inkscape:window-width="1558"
     inkscape:pageshadow="2"
     inkscape:pageopacity="0"
     guidetolerance="10"
     gridtolerance="10"
     objecttolerance="10"
     borderopacity="1"
     bordercolor="#666666"
     pagecolor="#656565"
     inkscape:document-rotation="0"
     inkscape:pagecheckerboard="true"
     width="875px" /><rect
     y="0"
     x="0"
     height="450"
     width="825"
     id="rect8876"
     style="fill:#000000;fill-opacity:0;stroke:none;stroke-width:26.396;stroke-linejoin:miter;stroke-miterlimit:4;stroke-dasharray:none;stroke-opacity:1" /><metadata
     id="metadata971"><rdf:RDF><rdf:Description
         dc:language="en"
         dc:format="image/svg+xml"
         dc:date="2017-09-24"
         dc:publisher="Iconscout"
         dc:description="ios,arrow,thin,right"
         dc:title="ios,arrow,thin,right"
         about="https://iconscout.com/legal#licenses"><dc:creator><rdf:Bag><rdf:li>Benjamin J Sperry</rdf:li></rdf:Bag></dc:creator></rdf:Description><cc:Work
         rdf:about=""><dc:format>image/svg+xml</dc:format><dc:type
           rdf:resource="http://purl.org/dc/dcmitype/StillImage" /></cc:Work></rdf:RDF></metadata><path
     style="fill:#cccccc;fill-opacity:1;stroke-width:0.0998643"
     d="m 192.68345,331.50477 v 75.49708 c 0,5.79209 -4.69361,10.38583 -10.38584,10.38583 -5.79211,0 -10.38585,-4.6936 -10.38585,-10.38583 V 331.50477 C 140.05521,329.0082 111.39428,314.92739 90.02343,293.55651 66.35571,269.8888 51.67572,237.23332 51.67572,201.28233 c 0,-5.7921 4.6936,-10.38585 10.38583,-10.38585 5.79211,0 10.38586,4.69361 10.38586,10.38585 0,30.15887 12.3831,57.62146 32.256,77.59419 19.87291,19.87292 47.33546,32.25604 77.5942,32.25604 30.15889,0 57.62145,-12.38312 77.59421,-32.25604 19.8729,-19.87288 32.25602,-47.33542 32.25602,-77.59419 0,-5.7921 4.6936,-10.38585 10.38583,-10.38585 5.79212,0 10.38586,4.69361 10.38586,10.38585 0,35.95099 -14.68,68.60647 -38.34772,92.27418 -21.37086,21.37088 -50.03178,35.45169 -81.88836,37.94826 z M 182.99666,32.61232 c 19.97277,0 38.14798,8.18881 51.33001,21.37084 13.18205,13.18203 21.37086,31.35726 21.37086,51.33003 v 93.97186 c 0,19.97278 -8.18881,38.14802 -21.37086,51.33002 -13.18203,13.18202 -31.35724,21.37086 -51.33001,21.37086 -19.97277,0 -38.14799,-8.18884 -51.33002,-21.37086 -13.18203,-13.182 -21.37085,-31.35724 -21.37085,-51.33002 v -93.97186 c 0,-19.97277 8.18882,-38.148 21.37085,-51.33003 13.18203,-13.18203 31.35725,-21.37084 51.33002,-21.37084 z m 36.55016,36.05084 c -9.38721,-9.38721 -22.36949,-15.17932 -36.55016,-15.17932 -14.28053,0 -27.16297,5.79211 -36.55017,15.17931 -9.38719,9.3872 -15.1793,22.36949 -15.1793,36.55016 v 93.9719 c 0,14.28052 5.79211,27.16295 15.1793,36.55017 9.3872,9.38719 22.3695,15.17927 36.55017,15.17927 14.28052,0 27.16295,-5.79208 36.55016,-15.17927 9.38721,-9.38721 15.17932,-22.36952 15.17932,-36.55016 v -93.9719 c 0,-14.28051 -5.79211,-27.16297 -15.17932,-36.55016 z"
     fill-rule="nonzero"
     id="path7563" /><path
     id="path969"
     d="m 395.75001,278.70692 c -3.1,-3.1 -3,-8 0,-11.3 l 26.40003,-34.4 h -70.59998 c -4.4,0 -8,-3.6 -8,-8 0,-4.4 3.6,-8 8,-8 h 70.59998 l -26.30003,-34.4 c -2.9,-3.4 -3.2,-8.1 -0.1,-11.2 3.1,-3.1 8.5,-3.3 11.4,-0.1 0,0 39.19999,47 39.99999,48 0.8,1 2.4,2.8 2.4,5.7 0,2.9 -1.6,4.9 -2.4,5.7 -0.8,0.8 -39.99999,48 -39.99999,48 -1.5,1.5 -3.6,2.3 -5.7,2.3 -2.1,0 -4.1,-0.8 -5.7,-2.3 z"
     style="fill:#a9afb8;fill-opacity:0.848083"
     sodipodi:nodetypes="cccsssccscssscsc" /><path
     id="path7431"
     fill="#e5e5e5"
     d="m 494.477,305.677 c 6.089,3.582 8.06,11.46301 4.299,17.55201 -3.583,6.087 -11.463,8.061 -17.552,4.299 -5.91,-3.582 -10.924,-8.775 -14.506,-14.86501 -3.401,-5.909 -5.372,-12.895 -5.372,-20.057 V 171.185 c 0,-11.283 4.655,-21.491 11.999,-28.833 7.342,-7.343 17.55,-11.998 28.833,-11.998 h 94.557 l 80.59,-81.12701 c 5.015,-5.016 13.074,-5.016 18.089,0 2.507,2.507 3.761,5.73 3.761,9.133 V 124.801 c 0,7.164 -5.73,12.896 -12.895,12.896 -7.162,0 -12.895,-5.731 -12.895,-12.896 V 89.342 L 611.6,151.486 c -2.328,2.686 -5.91,4.478 -9.67,4.478 h -99.932 c -4.119,0 -7.879,1.791 -10.745,4.477 -2.686,2.687 -4.478,6.626 -4.478,10.746 v 121.421 c 0,2.686 0.717,5.191 1.97,7.343 1.254,2.326 3.225,4.298 5.553,5.552 z m 8.418,86.86001 c -5.015,5.015 -13.074,5.015 -18.089,0 -5.014,-5.016 -5.014,-13.075 0,-18.088 L 749.497,109.757 c 5.015,-5.014 13.074,-5.014 18.089,0 5.015,5.015 5.015,13.074 0,18.088 z M 673.743,256.789 c 0,-7.164 5.732,-12.895 12.896,-12.895 7.164,0 12.895,5.73 12.895,12.895 v 134.85101 c 0,7.165 -5.731,12.895 -12.895,12.895 -3.402,0 -6.627,-1.432 -8.775,-3.582 l -66.801,-54.443 c -5.551,-4.476 -6.267,-12.536 -1.79,-17.906 4.478,-5.552 12.537,-6.269 17.91,-1.792 l 46.739,37.966 V 256.788 Z"
     style="fill:#cccccc;fill-opacity:1" /></svg>
